<?xml version="1.0" encoding="UTF-8" standalone="no"?>
<!-- Created with Inkscape (http://www.inkscape.org/) -->

<svg
   width="16"
   height="16"
   viewBox="0 0 4.2333332 4.2333333"
   version="1.1"
   id="svg5"
   inkscape:version="1.2.1 (9c6d41e410, 2022-07-14)"
   sodipodi:docname="emoji.svg"
   xmlns:inkscape="http://www.inkscape.org/namespaces/inkscape"
   xmlns:sodipodi="http://sodipodi.sourceforge.net/DTD/sodipodi-0.dtd"
   xmlns="http://www.w3.org/2000/svg"
   xmlns:svg="http://www.w3.org/2000/svg">
  <sodipodi:namedview
     id="namedview7"
     pagecolor="#505050"
     bordercolor="#eeeeee"
     borderopacity="1"
     inkscape:showpageshadow="0"
     inkscape:pageopacity="0"
     inkscape:pagecheckerboard="0"
     inkscape:deskcolor="#505050"
     inkscape:document-units="mm"
     showgrid="false"
     showguides="true"
     inkscape:zoom="16.710735"
     inkscape:cx="21.004462"
     inkscape:cy="13.225032"
     inkscape:window-width="1920"
     inkscape:window-height="1009"
     inkscape:window-x="-8"
     inkscape:window-y="-8"
     inkscape:window-maximized="1"
     inkscape:current-layer="layer1">
    <sodipodi:guide
       position="6.6182507,5.8324799"
       orientation="0,-1"
       id="guide1723"
       inkscape:locked="false" />
  </sodipodi:namedview>
  <defs
     id="defs2">
    <clipPath
       clipPathUnits="userSpaceOnUse"
       id="clipPath2811">
      <path
         id="path2813"
         style="fill:#ff0000;fill-opacity:1;fill-rule:nonzero;stroke:none;stroke-width:0.264583"
         d="m -4.3640748,1.7595825 v 0.837675 c 0.0053,-0.00727 0.0107,-0.014258 0.016536,-0.021187 0.00775,-0.00887 0.015073,-0.018402 0.023254,-0.026872 0.00266,-0.00276 0.00553,-0.0056 0.00827,-0.00827 0.00728,-0.040334 0.020132,-0.077578 0.047542,-0.1126546 0.00651,-0.0078 0.012867,-0.016191 0.019637,-0.023771 0.00432,-0.00484 0.00888,-0.00934 0.013436,-0.013953 -0.00747,-0.00958 -0.014584,-0.019409 -0.021188,-0.029456 -0.020897,-0.031796 7.409e-4,-0.076158 0.00103,-0.1142049 0.00646,-0.022141 0.01143,-0.044402 0.019121,-0.066146 0.028332,-0.080096 0.073306,-0.1548298 0.1245401,-0.2222086 0.010044,-0.013209 0.021066,-0.025874 0.031523,-0.038757 0.011007,-0.011373 0.021326,-0.0235 0.033073,-0.034107 0.07826,-0.070647 0.1163182,-0.059896 0.1896525,0.01602 h 5.292e-4 c 0.023741,-0.00886 0.047621,-0.017365 0.071313,-0.026355 0.030862,-0.011711 0.061716,-0.023744 0.092501,-0.035657 0.00276,-0.00103 0.0055,-0.00206 0.00827,-0.0031 0.013478,-0.021357 0.026733,-0.041903 0.043408,-0.068213 0.00217,-0.00343 0.00475,-0.00649 0.00775,-0.00878 z m 1.8913575,0 c 0.013501,0.00909 0.028532,0.01977 0.043408,0.030489 0.043528,0.012868 0.085422,0.035982 0.1198893,0.052193 0.1480856,0.091207 0.2797354,0.2066425 0.3989421,0.3327962 0.023303,0.02466 0.045457,0.050282 0.068213,0.075448 0.036367,0.04317 0.069715,0.08047 0.1018026,0.1266073 0.012113,0.017417 0.02413,0.034753 0.03359,0.053743 0.010643,0.02137 0.026598,0.042791 0.026355,0.066663 -2.392e-4,0.023525 0.00183,0.049631 0.00155,0.074931 0.00619,6.959e-4 0.012412,0.00136 0.018603,0.00207 5.08e-4,6.16e-5 0.00104,-6.16e-5 0.00155,0 V 1.7595825 Z m -1.6670816,0.3917074 c -0.00103,3.36e-4 -0.00206,7.594e-4 -0.0031,0.00103 -0.00272,7.911e-4 -0.00857,0.00722 -0.0062,0.00568 0.00325,-0.00212 0.00619,-0.0044 0.0093,-0.00672 z m 0.9120889,0.010852 c -0.023715,0.00364 -0.047468,0.00821 -0.071313,0.010852 -0.047859,0.0053 -0.1021686,0.00744 -0.1503786,0.00672 -0.00955,-1.41e-4 -0.021016,-5.212e-4 -0.033073,-0.00103 -0.012846,0.00499 -0.025911,0.00951 -0.038758,0.014469 -0.00217,0.026662 -0.018325,0.055221 -0.026872,0.081132 -0.00545,0.016537 -0.01755,0.030079 -0.027389,0.044442 -0.021688,0.031644 -0.049264,0.059482 -0.074931,0.08785 -0.029951,0.032403 -0.06053,0.064539 -0.08785,0.099219 -0.015761,0.023452 -0.034441,0.044244 -0.052193,0.066146 0.00172,6e-5 -7.409e-4,-8.24e-5 0,0.00207 1.452e-4,4.102e-4 0.00116,-0.00144 0.00103,-0.00103 -0.00871,0.02529 -0.029955,0.048542 -0.044958,0.06873 -0.014901,-0.0056 -0.030258,-0.010552 -0.045475,-0.015503 0.015142,0.029437 0.030617,0.058701 0.047026,0.087333 -0.00119,0.00103 -0.00243,0.00206 -0.00362,0.0031 0.00705,-7.673e-4 0.014237,-0.00132 0.02222,-0.00259 0.00634,-0.00101 0.012732,-0.00254 0.019121,-0.0031 4.233e-4,-4.02e-5 3.704e-4,8.202e-4 0,0.00103 -0.00631,0.00355 -0.013208,0.0065 -0.019637,0.00982 -0.00488,0.00251 -0.00967,0.00514 -0.01447,0.00775 0.2007989,0.086285 0.1560304,0.3479591 -0.1581298,0.3648358 l -0.01292,0.00103 c 0.00138,0.00185 0.00278,0.00382 0.00414,0.00568 0.00754,0.010409 0.014007,0.020862 0.021188,0.031523 0.014613,0.024196 0.028486,0.049309 0.039791,0.075448 0.039506,-3.44e-4 0.078821,-0.0013 0.1183391,-0.00259 0.1189938,-0.00389 0.2024746,0.0304 0.2501138,0.080099 0.00947,5.292e-4 0.018944,0.00108 0.028422,0.00156 0.046824,0.00329 0.093702,0.00508 0.1405599,0.00775 0.045128,0.00291 0.090706,0.0045 0.1359091,0.00568 0.041556,0.00101 0.082973,0.00183 0.1245401,0.00206 0.0422,-3.175e-4 0.084445,4.234e-4 0.1266074,0.00206 0.035344,0.00151 0.070566,0.00209 0.1059365,0.00259 0.038463,4.762e-4 0.076774,9.26e-4 0.1152385,0.00103 0.03521,8.54e-5 0.070727,-1.96e-5 0.1059368,0 0.035476,-1.199e-4 0.070492,0.00188 0.1059367,0.0031 0.034889,0.00116 0.069998,0.00177 0.1049031,0.00206 8.599e-4,6.1e-6 0.00172,-5.8e-6 0.00258,0 0.00832,-0.00212 0.016568,-0.00415 0.025322,-0.0062 -0.2224947,-0.089354 -0.229035,-0.2786322 -0.091984,-0.3498495 -7.858e-4,-0.012994 -3.518e-4,-0.025837 0.00207,-0.03824 -0.025124,-0.043581 -0.028258,-0.09151 -0.010335,-0.1343589 -0.1543209,-0.137206 -0.057837,-0.2622131 0.1808675,-0.267167 0.040415,-8.387e-4 0.085287,0.00167 0.1333252,0.00827 0.00185,2.525e-4 0.00256,5.715e-4 0.0031,5.159e-4 -0.00262,-0.00172 -0.01968,-0.00784 -0.01602,-0.00827 0.00314,-3.704e-4 0.00617,0.00162 0.0093,0.00207 0.00688,9.789e-4 0.01375,0.00182 0.020671,0.00258 0.014166,0.00151 0.024137,0.00229 0.032556,0.0031 -0.00163,-0.00315 -0.00355,-0.00613 -0.00517,-0.0093 -2.752e-4,-4.392e-4 -7.858e-4,-6.244e-4 -0.00103,-0.00103 -0.032483,-0.051888 -0.045279,-0.077747 -0.032039,-0.096635 -0.033207,-0.034104 -0.067723,-0.067154 -0.1033528,-0.098702 -0.01515,0.00808 -0.030515,0.0167 -0.047026,0.025838 -0.018626,0.010308 -0.036231,-0.022526 -0.053743,-0.034623 -0.0033,-0.00228 -0.00573,-0.00405 -0.00879,-0.0062 -0.00451,0.00411 -0.00932,0.00799 -0.013953,0.011886 -0.030833,0.025916 -0.078629,0.019147 -0.1188558,0.021187 -0.038839,0.00197 -0.1230579,-0.022939 -0.1586467,-0.032039 -0.1681223,-0.04717 -0.3361616,-0.095452 -0.5038452,-0.1441773 z m -0.8826334,0.096635 c 2.646e-4,-0.00239 -0.00323,0.0038 -0.0031,0.0062 1.514e-4,0.00274 4.69e-5,0.00594 0,0.00879 0.00119,-0.00493 0.00254,-0.00995 0.0031,-0.014986 z m 0.4495848,0.096635 c -0.00119,7.673e-4 -0.00243,0.0013 -0.00362,0.00207 0.00241,1.891e-4 0.00341,3.307e-4 0.00414,5.159e-4 -0.00103,-3.307e-4 -0.00164,-7.937e-4 -5.292e-4,-0.00259 z m -0.052193,1.3167155 c -0.013002,1.59e-4 -0.02626,6.086e-4 -0.039274,5.292e-4 -0.02495,2.91e-4 -0.049998,5.291e-4 -0.074931,0.00156 -0.032446,0.00132 -0.064668,0.00371 -0.097152,0.00362 -0.028371,1.9e-5 -0.056895,-9.77e-5 -0.085266,0 -0.026887,1.135e-4 -0.053732,5.556e-4 -0.080615,0.00103 -0.029544,5.821e-4 -0.058854,0.00106 -0.088367,0.00259 -0.047252,0.00222 -0.094804,0.00336 -0.1421101,0.00362 -0.014438,2.506e-4 -0.028973,7.144e-4 -0.043408,0.00103 v 0.7451741 h 2.7052613 V 3.7202142 c -0.03046,0.00175 -0.060881,0.00243 -0.091467,0.00206 -0.0477,-2.4e-4 -0.095451,-6.614e-4 -0.1431437,-0.00156 -0.053976,-0.00108 -0.1078114,-0.00222 -0.1617472,-0.00465 -0.046632,-0.0019 -0.093445,-0.00291 -0.1400431,-0.00569 -0.046315,-0.0023 -0.092646,-0.00374 -0.1390096,-0.00465 -0.047272,-5.63e-5 -0.094323,-1.881e-4 -0.1415935,-5.291e-4 -0.038291,-3.175e-4 -0.076965,-7.938e-4 -0.1152384,-0.00206 -0.031035,-0.00106 -0.061964,-0.00303 -0.093018,-0.0031 -0.035505,-1.98e-5 -0.070949,8.65e-5 -0.1064535,0 -0.039979,-1.124e-4 -0.079912,-2.01e-5 -0.1198894,-5.292e-4 -0.038604,-5.556e-4 -0.077179,-0.00146 -0.1157552,-0.0031 -0.037847,-0.00148 -0.075805,-0.00243 -0.113688,-0.00206 -0.044217,-2.646e-4 -0.088085,-9.79e-4 -0.1322919,-0.00206 -0.049295,-0.00132 -0.099094,-0.00304 -0.1483114,-0.0062 -0.045651,-0.00268 -0.091325,-0.00392 -0.1369425,-0.00723 -0.038937,-0.00191 -0.077829,-0.00482 -0.1167887,-0.0062 -0.013007,-5.556e-4 -0.025754,-6.879e-4 -0.038757,-5.285e-4 z" />
    </clipPath>
  </defs>
  <g
     inkscape:label="Calque 1"
     inkscape:groupmode="layer"
     id="layer1">
    <circle
       style="fill:none;stroke-width:0.26458333;stroke-linecap:square;stroke-linejoin:round;paint-order:stroke fill markers;stroke:#fb7193;stroke-opacity:1;stroke-dasharray:none"
       id="path234"
       cx="2.1166666"
       cy="2.1166666"
       r="1.984375" />
    <path
       id="path1624"
       clip-path="url(#clipPath2811)"
       style="fill:none;stroke:#fb7193;stroke-width:0.264583;stroke-linecap:square;stroke-linejoin:round;paint-order:stroke fill markers"
       transform="translate(5.1282158,-0.97886611)"
       d="M -1.791315,3.0956161 A 1.2203332,1.2035397 0 0 1 -3.0116482,4.2991558 1.2203332,1.2035397 0 0 1 -4.2319814,3.0956161 1.2203332,1.2035397 0 0 1 -3.0116482,1.8920764 1.2203332,1.2035397 0 0 1 -1.791315,3.0956161 Z" />
    <rect
       style="fill:#fb7193;fill-opacity:1;stroke:none;stroke-width:0.264583;stroke-linecap:square;stroke-linejoin:round;stroke-dasharray:none;stroke-opacity:1;paint-order:stroke fill markers"
       id="rect2815"
       width="0.36416212"
       height="0.72832423"
       x="0.96283174"
       y="1"
       ry="0.18208106" />
    <rect
       style="fill:#fb7193;fill-opacity:1;stroke:none;stroke-width:0.264583;stroke-linecap:square;stroke-linejoin:round;stroke-dasharray:none;stroke-opacity:1;paint-order:stroke fill markers"
       id="rect2817"
       width="0.36416212"
       height="0.72832423"
       x="2.8244498"
       y="1"
       ry="0.18208106" />
  </g>
</svg>
