<?xml version="1.0" encoding="UTF-8" standalone="no"?>
<!-- Created with Inkscape (http://www.inkscape.org/) -->

<svg
   width="32"
   height="32"
   viewBox="0 0 8.4666662 8.4666662"
   version="1.1"
   id="svg5"
   xml:space="preserve"
   inkscape:version="1.2.1 (9c6d41e410, 2022-07-14)"
   sodipodi:docname="message.svg"
   xmlns:inkscape="http://www.inkscape.org/namespaces/inkscape"
   xmlns:sodipodi="http://sodipodi.sourceforge.net/DTD/sodipodi-0.dtd"
   xmlns="http://www.w3.org/2000/svg"
   xmlns:svg="http://www.w3.org/2000/svg"><sodipodi:namedview
     id="namedview7"
     pagecolor="#505050"
     bordercolor="#eeeeee"
     borderopacity="1"
     inkscape:showpageshadow="0"
     inkscape:pageopacity="0"
     inkscape:pagecheckerboard="0"
     inkscape:deskcolor="#505050"
     inkscape:document-units="mm"
     showgrid="false"
     inkscape:zoom="5.6568543"
     inkscape:cx="3.4471455"
     inkscape:cy="27.046834"
     inkscape:window-width="1920"
     inkscape:window-height="1009"
     inkscape:window-x="-8"
     inkscape:window-y="-8"
     inkscape:window-maximized="1"
     inkscape:current-layer="layer1" /><defs
     id="defs2" /><g
     inkscape:label="Calque 1"
     inkscape:groupmode="layer"
     id="layer1"><path
       id="path536-8"
       style="fill:#fb7193;fill-opacity:1;stroke-width:0.192548;paint-order:stroke fill markers"
       d="M 4.880839 -0.0025838216 C 4.6402589 -0.0077108677 4.4093865 0.13236181 4.3444377 0.41806234 C 4.2119991 1.0006397 5.0292193 1.8397437 4.3873291 2.5993245 C 4.4897668 2.2918294 4.5779248 2.0443716 4.4519246 1.7228923 C 3.8252532 0.51187053 2.5019099 0.54263932 1.0324951 0.37723796 C 1.2578724 1.6283553 1.9084947 2.2918229 3.1832682 2.8236003 C 3.1832682 2.8236003 2.460376 3.0656859 2.1507731 3.2721517 C 1.7734519 3.523777 1.4011701 3.8248168 1.1828735 4.2100789 C 0.68978199 5.0803096 0.8580347 6.1211789 1.2474691 7.0848389 L 0 8.450647 L 2.9036987 7.9204468 C 2.9036987 7.9204468 3.1740606 8.138093 3.3336466 8.2062174 C 3.6697714 8.3497019 4.0414977 8.4236537 4.4090332 8.450647 C 4.9397004 8.48962 5.4903694 8.4733956 6.0006673 8.3286906 C 7.0934777 8.0188024 8.3471109 7.036526 8.4521973 5.8208333 C 8.4974843 5.2969288 8.4445687 4.7968288 8.1514404 4.2917277 C 8.027716 4.078532 7.8781574 3.8755316 7.6997884 3.7005493 C 7.47259 3.4776633 7.2082481 3.2854502 6.9256755 3.1295247 C 6.411656 2.8458847 5.7805828 2.6926512 5.1402547 2.6401489 C 5.1402547 2.6401489 5.4290918 2.0274177 5.5061239 1.7022217 C 5.6392215 1.1403388 5.779803 0.34345005 5.1185506 0.051159668 C 5.0419039 0.017279862 4.9610324 -0.00087480629 4.880839 -0.0025838216 z M 2.778125 5.159375 A 0.52916664 0.52916664 0 0 1 3.3072917 5.6885417 A 0.52916664 0.52916664 0 0 1 2.778125 6.2177083 A 0.52916664 0.52916664 0 0 1 2.2489583 5.6885417 A 0.52916664 0.52916664 0 0 1 2.778125 5.159375 z M 4.6467448 5.159375 A 0.52916664 0.52916664 0 0 1 5.1759115 5.6885417 A 0.52916664 0.52916664 0 0 1 4.6467448 6.2177083 A 0.52916664 0.52916664 0 0 1 4.1175781 5.6885417 A 0.52916664 0.52916664 0 0 1 4.6467448 5.159375 z M 6.5153646 5.159375 A 0.52916664 0.52916664 0 0 1 7.0445312 5.6885417 A 0.52916664 0.52916664 0 0 1 6.5153646 6.2177083 A 0.52916664 0.52916664 0 0 1 5.9861979 5.6885417 A 0.52916664 0.52916664 0 0 1 6.5153646 5.159375 z " /><path
       id="path536"
       style="fill:#77b255;fill-opacity:1;stroke-width:0.192548;paint-order:stroke fill markers"
       d="M 1.0216905,0.37442429 C 1.2470685,1.6255441 1.9067173,2.2912862 3.1814943,2.8230642 5.2818355,2.4158073 2.1642213,3.0280896 4.3908338,2.5939207 4.550754,2.3057978 4.5811187,1.9436444 4.4624421,1.7197271 3.8238837,0.51490451 2.4911085,0.53982609 1.0216905,0.37442429 Z"
       sodipodi:nodetypes="cccsc" /></g></svg>
