<?xml version="1.0" encoding="UTF-8" standalone="no"?>
<!-- Created with Inkscape (http://www.inkscape.org/) -->

<svg
   width="40"
   height="46"
   viewBox="0 0 10.583333 12.170833"
   version="1.1"
   id="svg5"
   xml:space="preserve"
   inkscape:version="1.2.1 (9c6d41e410, 2022-07-14)"
   sodipodi:docname="notification.svg"
   xmlns:inkscape="http://www.inkscape.org/namespaces/inkscape"
   xmlns:sodipodi="http://sodipodi.sourceforge.net/DTD/sodipodi-0.dtd"
   xmlns="http://www.w3.org/2000/svg"
   xmlns:svg="http://www.w3.org/2000/svg"><sodipodi:namedview
     id="namedview7"
     pagecolor="#505050"
     bordercolor="#eeeeee"
     borderopacity="1"
     inkscape:showpageshadow="0"
     inkscape:pageopacity="0"
     inkscape:pagecheckerboard="0"
     inkscape:deskcolor="#505050"
     inkscape:document-units="mm"
     showgrid="false"
     inkscape:zoom="7.2407734"
     inkscape:cx="29.416747"
     inkscape:cy="37.150728"
     inkscape:window-width="1920"
     inkscape:window-height="1009"
     inkscape:window-x="-8"
     inkscape:window-y="-8"
     inkscape:window-maximized="1"
     inkscape:current-layer="layer1" /><defs
     id="defs2"><rect
       x="145.56197"
       y="24.373165"
       width="253.21011"
       height="57.547752"
       id="rect473" /><rect
       x="145.56197"
       y="28.43536"
       width="312.78897"
       height="79.212791"
       id="rect356" /></defs><g
     inkscape:label="Calque 1"
     inkscape:groupmode="layer"
     id="layer1"><g
       id="g9071"
       transform="matrix(1.1450433,0,0,1.1450433,-0.7675208,-0.54722534)"><g
         id="g9075"
         transform="translate(0.22081791)"><path
           style="opacity:0.974304;fill:#5c913b;fill-opacity:1;stroke:none;stroke-width:0.0595633;paint-order:stroke fill markers"
           d="M 3.5805021,2.6881539 C 3.2494656,1.9646592 3.1020168,1.353612 3.1865883,0.59949666 3.9881334,0.75867726 5.0838572,1.0232491 5.3576928,1.5980214 5.5420839,2.0072426 5.2399518,1.7556473 5.2019595,1.8453629 c -0.050251,0.1186655 -0.068168,0.2488737 -0.091608,0.3755913 -0.030796,0.1664782 -0.05764,0.3346649 -0.064125,0.5038432 -0.00234,0.061103 0.00916,0.1832151 0.00916,0.1832151 L 4.6065099,2.7339578 C 4.2720677,2.6042764 3.9314719,2.6643597 3.5805021,2.6881539 Z"
           id="path8765-7"
           sodipodi:nodetypes="cccssscsc" /><path
           style="opacity:0.974304;fill:#77b255;fill-opacity:1;stroke:none;stroke-width:0.0595633;paint-order:stroke fill markers"
           d="m 5.0666016,2.7843619 c 0,0 0.016245,-0.3498469 0.02591,-0.5246894 C 5.196143,1.2810516 6.0941988,0.78222257 6.906253,0.49775152 7.0564361,1.139337 6.938017,1.7500246 6.8611254,2.4068127 c 0,0 -0.1951062,-0.079218 -0.2980078,-0.038432 C 6.0582201,2.5685027 5.7092062,2.5844655 5.558902,3.0499453 5.3958327,2.9595213 5.2309592,2.8724103 5.0666016,2.7843619 Z"
           id="path8767-1"
           sodipodi:nodetypes="ccccscc" /></g></g><path
       id="rect973"
       style="fill:#fb7193;fill-opacity:1;stroke-width:0.192367;paint-order:stroke fill markers"
       d="M 5.1230276,1.276448 A 3.3325532,3.3325532 0 0 0 1.9591139,4.6036757 V 7.051611 A 1.8177562,1.8177562 0 0 1 1.2774554,8.4693664 L 1.0141412,8.6812012 A 1.5147968,1.5147968 0 0 0 0.44431708,9.862861 v 0.497043 H 10.139016 V 9.862861 A 1.5147968,1.5147968 0 0 0 9.5691931,8.6841597 L 9.3058788,8.472325 A 1.8177562,1.8177562 0 0 1 8.6242201,7.051611 V 4.6036757 A 3.3325532,3.3325532 0 0 0 5.1230276,1.276448 Z M 4.2496525,11.57174 a 1.2118374,1.2118374 0 0 0 1.0420146,0.60592 1.2118374,1.2118374 0 0 0 1.0449732,-0.60592 z" /></g></svg>
